<svg width="397" height="397" viewBox="0 0 397 397" fill="none" xmlns="http://www.w3.org/2000/svg">
<circle cx="198.08" cy="198.08" r="198.08" fill="#C4C4C4"/>
<path d="M198.083 187.098C207.984 187.098 217.662 184.262 225.894 178.949C234.126 173.636 240.542 166.084 244.331 157.249C248.12 148.413 249.111 138.691 247.179 129.312C245.248 119.932 240.48 111.316 233.48 104.554C226.479 97.7914 217.559 93.1862 207.849 91.3205C198.139 89.4547 188.074 90.4123 178.927 94.0721C169.78 97.7318 161.962 103.929 156.462 111.881C150.961 119.833 148.025 129.181 148.025 138.745C148.025 151.569 153.299 163.868 162.687 172.936C172.075 182.004 184.807 187.098 198.083 187.098ZM198.083 114.568C203.034 114.568 207.873 115.986 211.989 118.643C216.105 121.299 219.313 125.075 221.207 129.493C223.102 133.911 223.597 138.772 222.631 143.462C221.666 148.151 219.282 152.459 215.782 155.84C212.281 159.222 207.821 161.524 202.966 162.457C198.111 163.39 193.079 162.911 188.505 161.081C183.932 159.251 180.023 156.153 177.273 152.177C174.522 148.201 173.054 143.527 173.054 138.745C173.054 132.333 175.691 126.183 180.385 121.649C185.079 117.115 191.445 114.568 198.083 114.568Z" fill="black"/>
<path d="M198.08 211.275C174.847 211.275 152.565 220.19 136.136 236.059C119.708 251.928 110.479 273.451 110.479 295.894C110.479 299.1 111.797 302.175 114.144 304.442C116.491 306.709 119.674 307.982 122.993 307.982C126.312 307.982 129.495 306.709 131.842 304.442C134.189 302.175 135.508 299.1 135.508 295.894C135.508 279.864 142.1 264.49 153.835 253.155C165.569 241.82 181.485 235.452 198.08 235.452C214.675 235.452 230.591 241.82 242.325 253.155C254.06 264.49 260.652 279.864 260.652 295.894C260.652 299.1 261.971 302.175 264.318 304.442C266.665 306.709 269.848 307.982 273.167 307.982C276.486 307.982 279.669 306.709 282.016 304.442C284.363 302.175 285.681 299.1 285.681 295.894C285.681 273.451 276.452 251.928 260.024 236.059C243.595 220.19 221.313 211.275 198.08 211.275Z" fill="black"/>
</svg>
