<svg width="149" height="53" viewBox="0 0 149 53" fill="none" xmlns="http://www.w3.org/2000/svg">
<rect x="0.5" y="0.5" width="148" height="52" rx="9.5" fill="white" fill-opacity="0.4"/>
<path d="M34.5859 29.5742H36.8359C36.7188 30.6523 36.4102 31.6172 35.9102 32.4688C35.4102 33.3203 34.7031 33.9961 33.7891 34.4961C32.875 34.9883 31.7344 35.2344 30.3672 35.2344C29.3672 35.2344 28.457 35.0469 27.6367 34.6719C26.8242 34.2969 26.125 33.7656 25.5391 33.0781C24.9531 32.3828 24.5 31.5508 24.1797 30.582C23.8672 29.6055 23.7109 28.5195 23.7109 27.3242V25.625C23.7109 24.4297 23.8672 23.3477 24.1797 22.3789C24.5 21.4023 24.957 20.5664 25.5508 19.8711C26.1523 19.1758 26.875 18.6406 27.7188 18.2656C28.5625 17.8906 29.5117 17.7031 30.5664 17.7031C31.8555 17.7031 32.9453 17.9453 33.8359 18.4297C34.7266 18.9141 35.418 19.5859 35.9102 20.4453C36.4102 21.2969 36.7188 22.2852 36.8359 23.4102H34.5859C34.4766 22.6133 34.2734 21.9297 33.9766 21.3594C33.6797 20.7812 33.2578 20.3359 32.7109 20.0234C32.1641 19.7109 31.4492 19.5547 30.5664 19.5547C29.8086 19.5547 29.1406 19.6992 28.5625 19.9883C27.9922 20.2773 27.5117 20.6875 27.1211 21.2188C26.7383 21.75 26.4492 22.3867 26.2539 23.1289C26.0586 23.8711 25.9609 24.6953 25.9609 25.6016V27.3242C25.9609 28.1602 26.0469 28.9453 26.2188 29.6797C26.3984 30.4141 26.668 31.0586 27.0273 31.6133C27.3867 32.168 27.8438 32.6055 28.3984 32.9258C28.9531 33.2383 29.6094 33.3945 30.3672 33.3945C31.3281 33.3945 32.0938 33.2422 32.6641 32.9375C33.2344 32.6328 33.6641 32.1953 33.9531 31.625C34.25 31.0547 34.4609 30.3711 34.5859 29.5742ZM47.0664 32.832V26.3047C47.0664 25.8047 46.9648 25.3711 46.7617 25.0039C46.5664 24.6289 46.2695 24.3398 45.8711 24.1367C45.4727 23.9336 44.9805 23.832 44.3945 23.832C43.8477 23.832 43.3672 23.9258 42.9531 24.1133C42.5469 24.3008 42.2266 24.5469 41.9922 24.8516C41.7656 25.1562 41.6523 25.4844 41.6523 25.8359H39.4844C39.4844 25.3828 39.6016 24.9336 39.8359 24.4883C40.0703 24.043 40.4062 23.6406 40.8438 23.2812C41.2891 22.9141 41.8203 22.625 42.4375 22.4141C43.0625 22.1953 43.7578 22.0859 44.5234 22.0859C45.4453 22.0859 46.2578 22.2422 46.9609 22.5547C47.6719 22.8672 48.2266 23.3398 48.625 23.9727C49.0312 24.5977 49.2344 25.3828 49.2344 26.3281V32.2344C49.2344 32.6562 49.2695 33.1055 49.3398 33.582C49.418 34.0586 49.5312 34.4688 49.6797 34.8125V35H47.418C47.3086 34.75 47.2227 34.418 47.1602 34.0039C47.0977 33.582 47.0664 33.1914 47.0664 32.832ZM47.4414 27.3125L47.4648 28.8359H45.2734C44.6562 28.8359 44.1055 28.8867 43.6211 28.9883C43.1367 29.082 42.7305 29.2266 42.4023 29.4219C42.0742 29.6172 41.8242 29.8633 41.6523 30.1602C41.4805 30.4492 41.3945 30.7891 41.3945 31.1797C41.3945 31.5781 41.4844 31.9414 41.6641 32.2695C41.8438 32.5977 42.1133 32.8594 42.4727 33.0547C42.8398 33.2422 43.2891 33.3359 43.8203 33.3359C44.4844 33.3359 45.0703 33.1953 45.5781 32.9141C46.0859 32.6328 46.4883 32.2891 46.7852 31.8828C47.0898 31.4766 47.2539 31.082 47.2773 30.6992L48.2031 31.7422C48.1484 32.0703 48 32.4336 47.7578 32.832C47.5156 33.2305 47.1914 33.6133 46.7852 33.9805C46.3867 34.3398 45.9102 34.6406 45.3555 34.8828C44.8086 35.1172 44.1914 35.2344 43.5039 35.2344C42.6445 35.2344 41.8906 35.0664 41.2422 34.7305C40.6016 34.3945 40.1016 33.9453 39.7422 33.3828C39.3906 32.8125 39.2148 32.1758 39.2148 31.4727C39.2148 30.793 39.3477 30.1953 39.6133 29.6797C39.8789 29.1562 40.2617 28.7227 40.7617 28.3789C41.2617 28.0273 41.8633 27.7617 42.5664 27.582C43.2695 27.4023 44.0547 27.3125 44.9219 27.3125H47.4414ZM60.6367 32.5391V17H62.8164V35H60.8242L60.6367 32.5391ZM52.1055 28.8008V28.5547C52.1055 27.5859 52.2227 26.707 52.457 25.918C52.6992 25.1211 53.0391 24.4375 53.4766 23.8672C53.9219 23.2969 54.4492 22.8594 55.0586 22.5547C55.6758 22.2422 56.3633 22.0859 57.1211 22.0859C57.918 22.0859 58.6133 22.2266 59.207 22.5078C59.8086 22.7812 60.3164 23.1836 60.7305 23.7148C61.1523 24.2383 61.4844 24.8711 61.7266 25.6133C61.9688 26.3555 62.1367 27.1953 62.2305 28.1328V29.2109C62.1445 30.1406 61.9766 30.9766 61.7266 31.7188C61.4844 32.4609 61.1523 33.0938 60.7305 33.6172C60.3164 34.1406 59.8086 34.543 59.207 34.8242C58.6055 35.0977 57.9023 35.2344 57.0977 35.2344C56.3555 35.2344 55.6758 35.0742 55.0586 34.7539C54.4492 34.4336 53.9219 33.9844 53.4766 33.4062C53.0391 32.8281 52.6992 32.1484 52.457 31.3672C52.2227 30.5781 52.1055 29.7227 52.1055 28.8008ZM54.2852 28.5547V28.8008C54.2852 29.4336 54.3477 30.0273 54.4727 30.582C54.6055 31.1367 54.8086 31.625 55.082 32.0469C55.3555 32.4688 55.7031 32.8008 56.125 33.043C56.5469 33.2773 57.0508 33.3945 57.6367 33.3945C58.3555 33.3945 58.9453 33.2422 59.4062 32.9375C59.875 32.6328 60.25 32.2305 60.5312 31.7305C60.8125 31.2305 61.0312 30.6875 61.1875 30.1016V27.2773C61.0938 26.8477 60.957 26.4336 60.7773 26.0352C60.6055 25.6289 60.3789 25.2695 60.0977 24.957C59.8242 24.6367 59.4844 24.3828 59.0781 24.1953C58.6797 24.0078 58.207 23.9141 57.6602 23.9141C57.0664 23.9141 56.5547 24.0391 56.125 24.2891C55.7031 24.5312 55.3555 24.8672 55.082 25.2969C54.8086 25.7188 54.6055 26.2109 54.4727 26.7734C54.3477 27.3281 54.2852 27.9219 54.2852 28.5547ZM73.668 32.832V26.3047C73.668 25.8047 73.5664 25.3711 73.3633 25.0039C73.168 24.6289 72.8711 24.3398 72.4727 24.1367C72.0742 23.9336 71.582 23.832 70.9961 23.832C70.4492 23.832 69.9688 23.9258 69.5547 24.1133C69.1484 24.3008 68.8281 24.5469 68.5938 24.8516C68.3672 25.1562 68.2539 25.4844 68.2539 25.8359H66.0859C66.0859 25.3828 66.2031 24.9336 66.4375 24.4883C66.6719 24.043 67.0078 23.6406 67.4453 23.2812C67.8906 22.9141 68.4219 22.625 69.0391 22.4141C69.6641 22.1953 70.3594 22.0859 71.125 22.0859C72.0469 22.0859 72.8594 22.2422 73.5625 22.5547C74.2734 22.8672 74.8281 23.3398 75.2266 23.9727C75.6328 24.5977 75.8359 25.3828 75.8359 26.3281V32.2344C75.8359 32.6562 75.8711 33.1055 75.9414 33.582C76.0195 34.0586 76.1328 34.4688 76.2812 34.8125V35H74.0195C73.9102 34.75 73.8242 34.418 73.7617 34.0039C73.6992 33.582 73.668 33.1914 73.668 32.832ZM74.043 27.3125L74.0664 28.8359H71.875C71.2578 28.8359 70.707 28.8867 70.2227 28.9883C69.7383 29.082 69.332 29.2266 69.0039 29.4219C68.6758 29.6172 68.4258 29.8633 68.2539 30.1602C68.082 30.4492 67.9961 30.7891 67.9961 31.1797C67.9961 31.5781 68.0859 31.9414 68.2656 32.2695C68.4453 32.5977 68.7148 32.8594 69.0742 33.0547C69.4414 33.2422 69.8906 33.3359 70.4219 33.3359C71.0859 33.3359 71.6719 33.1953 72.1797 32.9141C72.6875 32.6328 73.0898 32.2891 73.3867 31.8828C73.6914 31.4766 73.8555 31.082 73.8789 30.6992L74.8047 31.7422C74.75 32.0703 74.6016 32.4336 74.3594 32.832C74.1172 33.2305 73.793 33.6133 73.3867 33.9805C72.9883 34.3398 72.5117 34.6406 71.957 34.8828C71.4102 35.1172 70.793 35.2344 70.1055 35.2344C69.2461 35.2344 68.4922 35.0664 67.8438 34.7305C67.2031 34.3945 66.7031 33.9453 66.3438 33.3828C65.9922 32.8125 65.8164 32.1758 65.8164 31.4727C65.8164 30.793 65.9492 30.1953 66.2148 29.6797C66.4805 29.1562 66.8633 28.7227 67.3633 28.3789C67.8633 28.0273 68.4648 27.7617 69.168 27.582C69.8711 27.4023 70.6562 27.3125 71.5234 27.3125H74.043ZM86.6289 31.6367C86.6289 31.3242 86.5586 31.0352 86.418 30.7695C86.2852 30.4961 86.0078 30.25 85.5859 30.0312C85.1719 29.8047 84.5469 29.6094 83.7109 29.4453C83.0078 29.2969 82.3711 29.1211 81.8008 28.918C81.2383 28.7148 80.7578 28.4688 80.3594 28.1797C79.9688 27.8906 79.668 27.5508 79.457 27.1602C79.2461 26.7695 79.1406 26.3125 79.1406 25.7891C79.1406 25.2891 79.25 24.8164 79.4688 24.3711C79.6953 23.9258 80.0117 23.5312 80.418 23.1875C80.832 22.8438 81.3281 22.5742 81.9062 22.3789C82.4844 22.1836 83.1289 22.0859 83.8398 22.0859C84.8555 22.0859 85.7227 22.2656 86.4414 22.625C87.1602 22.9844 87.7109 23.4648 88.0938 24.0664C88.4766 24.6602 88.668 25.3203 88.668 26.0469H86.5C86.5 25.6953 86.3945 25.3555 86.1836 25.0273C85.9805 24.6914 85.6797 24.4141 85.2812 24.1953C84.8906 23.9766 84.4102 23.8672 83.8398 23.8672C83.2383 23.8672 82.75 23.9609 82.375 24.1484C82.0078 24.3281 81.7383 24.5586 81.5664 24.8398C81.4023 25.1211 81.3203 25.418 81.3203 25.7305C81.3203 25.9648 81.3594 26.1758 81.4375 26.3633C81.5234 26.543 81.6719 26.7109 81.8828 26.8672C82.0938 27.0156 82.3906 27.1562 82.7734 27.2891C83.1562 27.4219 83.6445 27.5547 84.2383 27.6875C85.2773 27.9219 86.1328 28.2031 86.8047 28.5312C87.4766 28.8594 87.9766 29.2617 88.3047 29.7383C88.6328 30.2148 88.7969 30.793 88.7969 31.4727C88.7969 32.0273 88.6797 32.5352 88.4453 32.9961C88.2188 33.457 87.8867 33.8555 87.4492 34.1914C87.0195 34.5195 86.5039 34.7773 85.9023 34.9648C85.3086 35.1445 84.6406 35.2344 83.8984 35.2344C82.7812 35.2344 81.8359 35.0352 81.0625 34.6367C80.2891 34.2383 79.7031 33.7227 79.3047 33.0898C78.9062 32.457 78.707 31.7891 78.707 31.0859H80.8867C80.918 31.6797 81.0898 32.1523 81.4023 32.5039C81.7148 32.8477 82.0977 33.0938 82.5508 33.2422C83.0039 33.3828 83.4531 33.4531 83.8984 33.4531C84.4922 33.4531 84.9883 33.375 85.3867 33.2188C85.793 33.0625 86.1016 32.8477 86.3125 32.5742C86.5234 32.3008 86.6289 31.9883 86.6289 31.6367ZM96.9531 22.3203V23.9844H90.0977V22.3203H96.9531ZM92.418 19.2383H94.5859V31.8594C94.5859 32.2891 94.6523 32.6133 94.7852 32.832C94.918 33.0508 95.0898 33.1953 95.3008 33.2656C95.5117 33.3359 95.7383 33.3711 95.9805 33.3711C96.1602 33.3711 96.3477 33.3555 96.543 33.3242C96.7461 33.2852 96.8984 33.2539 97 33.2305L97.0117 35C96.8398 35.0547 96.6133 35.1055 96.332 35.1523C96.0586 35.207 95.7266 35.2344 95.3359 35.2344C94.8047 35.2344 94.3164 35.1289 93.8711 34.918C93.4258 34.707 93.0703 34.3555 92.8047 33.8633C92.5469 33.3633 92.418 32.6914 92.418 31.8477V19.2383ZM101.664 24.3125V35H99.4961V22.3203H101.605L101.664 24.3125ZM105.625 22.25L105.613 24.2656C105.434 24.2266 105.262 24.2031 105.098 24.1953C104.941 24.1797 104.762 24.1719 104.559 24.1719C104.059 24.1719 103.617 24.25 103.234 24.4062C102.852 24.5625 102.527 24.7812 102.262 25.0625C101.996 25.3438 101.785 25.6797 101.629 26.0703C101.48 26.4531 101.383 26.875 101.336 27.3359L100.727 27.6875C100.727 26.9219 100.801 26.2031 100.949 25.5312C101.105 24.8594 101.344 24.2656 101.664 23.75C101.984 23.2266 102.391 22.8203 102.883 22.5312C103.383 22.2344 103.977 22.0859 104.664 22.0859C104.82 22.0859 105 22.1055 105.203 22.1445C105.406 22.1758 105.547 22.2109 105.625 22.25ZM114.637 32.832V26.3047C114.637 25.8047 114.535 25.3711 114.332 25.0039C114.137 24.6289 113.84 24.3398 113.441 24.1367C113.043 23.9336 112.551 23.832 111.965 23.832C111.418 23.832 110.938 23.9258 110.523 24.1133C110.117 24.3008 109.797 24.5469 109.562 24.8516C109.336 25.1562 109.223 25.4844 109.223 25.8359H107.055C107.055 25.3828 107.172 24.9336 107.406 24.4883C107.641 24.043 107.977 23.6406 108.414 23.2812C108.859 22.9141 109.391 22.625 110.008 22.4141C110.633 22.1953 111.328 22.0859 112.094 22.0859C113.016 22.0859 113.828 22.2422 114.531 22.5547C115.242 22.8672 115.797 23.3398 116.195 23.9727C116.602 24.5977 116.805 25.3828 116.805 26.3281V32.2344C116.805 32.6562 116.84 33.1055 116.91 33.582C116.988 34.0586 117.102 34.4688 117.25 34.8125V35H114.988C114.879 34.75 114.793 34.418 114.73 34.0039C114.668 33.582 114.637 33.1914 114.637 32.832ZM115.012 27.3125L115.035 28.8359H112.844C112.227 28.8359 111.676 28.8867 111.191 28.9883C110.707 29.082 110.301 29.2266 109.973 29.4219C109.645 29.6172 109.395 29.8633 109.223 30.1602C109.051 30.4492 108.965 30.7891 108.965 31.1797C108.965 31.5781 109.055 31.9414 109.234 32.2695C109.414 32.5977 109.684 32.8594 110.043 33.0547C110.41 33.2422 110.859 33.3359 111.391 33.3359C112.055 33.3359 112.641 33.1953 113.148 32.9141C113.656 32.6328 114.059 32.2891 114.355 31.8828C114.66 31.4766 114.824 31.082 114.848 30.6992L115.773 31.7422C115.719 32.0703 115.57 32.4336 115.328 32.832C115.086 33.2305 114.762 33.6133 114.355 33.9805C113.957 34.3398 113.48 34.6406 112.926 34.8828C112.379 35.1172 111.762 35.2344 111.074 35.2344C110.215 35.2344 109.461 35.0664 108.812 34.7305C108.172 34.3945 107.672 33.9453 107.312 33.3828C106.961 32.8125 106.785 32.1758 106.785 31.4727C106.785 30.793 106.918 30.1953 107.184 29.6797C107.449 29.1562 107.832 28.7227 108.332 28.3789C108.832 28.0273 109.434 27.7617 110.137 27.582C110.84 27.4023 111.625 27.3125 112.492 27.3125H115.012ZM122.383 24.3125V35H120.215V22.3203H122.324L122.383 24.3125ZM126.344 22.25L126.332 24.2656C126.152 24.2266 125.98 24.2031 125.816 24.1953C125.66 24.1797 125.48 24.1719 125.277 24.1719C124.777 24.1719 124.336 24.25 123.953 24.4062C123.57 24.5625 123.246 24.7812 122.98 25.0625C122.715 25.3438 122.504 25.6797 122.348 26.0703C122.199 26.4531 122.102 26.875 122.055 27.3359L121.445 27.6875C121.445 26.9219 121.52 26.2031 121.668 25.5312C121.824 24.8594 122.062 24.2656 122.383 23.75C122.703 23.2266 123.109 22.8203 123.602 22.5312C124.102 22.2344 124.695 22.0859 125.383 22.0859C125.539 22.0859 125.719 22.1055 125.922 22.1445C126.125 22.1758 126.266 22.2109 126.344 22.25Z" fill="black"/>
<rect x="0.5" y="0.5" width="148" height="52" rx="9.5" stroke="black"/>
</svg>
