<svg width="149" height="53" viewBox="0 0 149 53" fill="none" xmlns="http://www.w3.org/2000/svg">
<rect x="0.5" y="0.5" width="148" height="52" rx="9.5" fill="white" fill-opacity="0.4"/>
<path d="M38.2188 29.5742H40.4688C40.3516 30.6523 40.043 31.6172 39.543 32.4688C39.043 33.3203 38.3359 33.9961 37.4219 34.4961C36.5078 34.9883 35.3672 35.2344 34 35.2344C33 35.2344 32.0898 35.0469 31.2695 34.6719C30.457 34.2969 29.7578 33.7656 29.1719 33.0781C28.5859 32.3828 28.1328 31.5508 27.8125 30.582C27.5 29.6055 27.3438 28.5195 27.3438 27.3242V25.625C27.3438 24.4297 27.5 23.3477 27.8125 22.3789C28.1328 21.4023 28.5898 20.5664 29.1836 19.8711C29.7852 19.1758 30.5078 18.6406 31.3516 18.2656C32.1953 17.8906 33.1445 17.7031 34.1992 17.7031C35.4883 17.7031 36.5781 17.9453 37.4688 18.4297C38.3594 18.9141 39.0508 19.5859 39.543 20.4453C40.043 21.2969 40.3516 22.2852 40.4688 23.4102H38.2188C38.1094 22.6133 37.9062 21.9297 37.6094 21.3594C37.3125 20.7812 36.8906 20.3359 36.3438 20.0234C35.7969 19.7109 35.082 19.5547 34.1992 19.5547C33.4414 19.5547 32.7734 19.6992 32.1953 19.9883C31.625 20.2773 31.1445 20.6875 30.7539 21.2188C30.3711 21.75 30.082 22.3867 29.8867 23.1289C29.6914 23.8711 29.5938 24.6953 29.5938 25.6016V27.3242C29.5938 28.1602 29.6797 28.9453 29.8516 29.6797C30.0312 30.4141 30.3008 31.0586 30.6602 31.6133C31.0195 32.168 31.4766 32.6055 32.0312 32.9258C32.5859 33.2383 33.2422 33.3945 34 33.3945C34.9609 33.3945 35.7266 33.2422 36.2969 32.9375C36.8672 32.6328 37.2969 32.1953 37.5859 31.625C37.8828 31.0547 38.0938 30.3711 38.2188 29.5742ZM50.6992 32.832V26.3047C50.6992 25.8047 50.5977 25.3711 50.3945 25.0039C50.1992 24.6289 49.9023 24.3398 49.5039 24.1367C49.1055 23.9336 48.6133 23.832 48.0273 23.832C47.4805 23.832 47 23.9258 46.5859 24.1133C46.1797 24.3008 45.8594 24.5469 45.625 24.8516C45.3984 25.1562 45.2852 25.4844 45.2852 25.8359H43.1172C43.1172 25.3828 43.2344 24.9336 43.4688 24.4883C43.7031 24.043 44.0391 23.6406 44.4766 23.2812C44.9219 22.9141 45.4531 22.625 46.0703 22.4141C46.6953 22.1953 47.3906 22.0859 48.1562 22.0859C49.0781 22.0859 49.8906 22.2422 50.5938 22.5547C51.3047 22.8672 51.8594 23.3398 52.2578 23.9727C52.6641 24.5977 52.8672 25.3828 52.8672 26.3281V32.2344C52.8672 32.6562 52.9023 33.1055 52.9727 33.582C53.0508 34.0586 53.1641 34.4688 53.3125 34.8125V35H51.0508C50.9414 34.75 50.8555 34.418 50.793 34.0039C50.7305 33.582 50.6992 33.1914 50.6992 32.832ZM51.0742 27.3125L51.0977 28.8359H48.9062C48.2891 28.8359 47.7383 28.8867 47.2539 28.9883C46.7695 29.082 46.3633 29.2266 46.0352 29.4219C45.707 29.6172 45.457 29.8633 45.2852 30.1602C45.1133 30.4492 45.0273 30.7891 45.0273 31.1797C45.0273 31.5781 45.1172 31.9414 45.2969 32.2695C45.4766 32.5977 45.7461 32.8594 46.1055 33.0547C46.4727 33.2422 46.9219 33.3359 47.4531 33.3359C48.1172 33.3359 48.7031 33.1953 49.2109 32.9141C49.7188 32.6328 50.1211 32.2891 50.418 31.8828C50.7227 31.4766 50.8867 31.082 50.9102 30.6992L51.8359 31.7422C51.7812 32.0703 51.6328 32.4336 51.3906 32.832C51.1484 33.2305 50.8242 33.6133 50.418 33.9805C50.0195 34.3398 49.543 34.6406 48.9883 34.8828C48.4414 35.1172 47.8242 35.2344 47.1367 35.2344C46.2773 35.2344 45.5234 35.0664 44.875 34.7305C44.2344 34.3945 43.7344 33.9453 43.375 33.3828C43.0234 32.8125 42.8477 32.1758 42.8477 31.4727C42.8477 30.793 42.9805 30.1953 43.2461 29.6797C43.5117 29.1562 43.8945 28.7227 44.3945 28.3789C44.8945 28.0273 45.4961 27.7617 46.1992 27.582C46.9023 27.4023 47.6875 27.3125 48.5547 27.3125H51.0742ZM64.2695 32.5391V17H66.4492V35H64.457L64.2695 32.5391ZM55.7383 28.8008V28.5547C55.7383 27.5859 55.8555 26.707 56.0898 25.918C56.332 25.1211 56.6719 24.4375 57.1094 23.8672C57.5547 23.2969 58.082 22.8594 58.6914 22.5547C59.3086 22.2422 59.9961 22.0859 60.7539 22.0859C61.5508 22.0859 62.2461 22.2266 62.8398 22.5078C63.4414 22.7812 63.9492 23.1836 64.3633 23.7148C64.7852 24.2383 65.1172 24.8711 65.3594 25.6133C65.6016 26.3555 65.7695 27.1953 65.8633 28.1328V29.2109C65.7773 30.1406 65.6094 30.9766 65.3594 31.7188C65.1172 32.4609 64.7852 33.0938 64.3633 33.6172C63.9492 34.1406 63.4414 34.543 62.8398 34.8242C62.2383 35.0977 61.5352 35.2344 60.7305 35.2344C59.9883 35.2344 59.3086 35.0742 58.6914 34.7539C58.082 34.4336 57.5547 33.9844 57.1094 33.4062C56.6719 32.8281 56.332 32.1484 56.0898 31.3672C55.8555 30.5781 55.7383 29.7227 55.7383 28.8008ZM57.918 28.5547V28.8008C57.918 29.4336 57.9805 30.0273 58.1055 30.582C58.2383 31.1367 58.4414 31.625 58.7148 32.0469C58.9883 32.4688 59.3359 32.8008 59.7578 33.043C60.1797 33.2773 60.6836 33.3945 61.2695 33.3945C61.9883 33.3945 62.5781 33.2422 63.0391 32.9375C63.5078 32.6328 63.8828 32.2305 64.1641 31.7305C64.4453 31.2305 64.6641 30.6875 64.8203 30.1016V27.2773C64.7266 26.8477 64.5898 26.4336 64.4102 26.0352C64.2383 25.6289 64.0117 25.2695 63.7305 24.957C63.457 24.6367 63.1172 24.3828 62.7109 24.1953C62.3125 24.0078 61.8398 23.9141 61.293 23.9141C60.6992 23.9141 60.1875 24.0391 59.7578 24.2891C59.3359 24.5312 58.9883 24.8672 58.7148 25.2969C58.4414 25.7188 58.2383 26.2109 58.1055 26.7734C57.9805 27.3281 57.918 27.9219 57.918 28.5547ZM77.3008 32.832V26.3047C77.3008 25.8047 77.1992 25.3711 76.9961 25.0039C76.8008 24.6289 76.5039 24.3398 76.1055 24.1367C75.707 23.9336 75.2148 23.832 74.6289 23.832C74.082 23.832 73.6016 23.9258 73.1875 24.1133C72.7812 24.3008 72.4609 24.5469 72.2266 24.8516C72 25.1562 71.8867 25.4844 71.8867 25.8359H69.7188C69.7188 25.3828 69.8359 24.9336 70.0703 24.4883C70.3047 24.043 70.6406 23.6406 71.0781 23.2812C71.5234 22.9141 72.0547 22.625 72.6719 22.4141C73.2969 22.1953 73.9922 22.0859 74.7578 22.0859C75.6797 22.0859 76.4922 22.2422 77.1953 22.5547C77.9062 22.8672 78.4609 23.3398 78.8594 23.9727C79.2656 24.5977 79.4688 25.3828 79.4688 26.3281V32.2344C79.4688 32.6562 79.5039 33.1055 79.5742 33.582C79.6523 34.0586 79.7656 34.4688 79.9141 34.8125V35H77.6523C77.543 34.75 77.457 34.418 77.3945 34.0039C77.332 33.582 77.3008 33.1914 77.3008 32.832ZM77.6758 27.3125L77.6992 28.8359H75.5078C74.8906 28.8359 74.3398 28.8867 73.8555 28.9883C73.3711 29.082 72.9648 29.2266 72.6367 29.4219C72.3086 29.6172 72.0586 29.8633 71.8867 30.1602C71.7148 30.4492 71.6289 30.7891 71.6289 31.1797C71.6289 31.5781 71.7188 31.9414 71.8984 32.2695C72.0781 32.5977 72.3477 32.8594 72.707 33.0547C73.0742 33.2422 73.5234 33.3359 74.0547 33.3359C74.7188 33.3359 75.3047 33.1953 75.8125 32.9141C76.3203 32.6328 76.7227 32.2891 77.0195 31.8828C77.3242 31.4766 77.4883 31.082 77.5117 30.6992L78.4375 31.7422C78.3828 32.0703 78.2344 32.4336 77.9922 32.832C77.75 33.2305 77.4258 33.6133 77.0195 33.9805C76.6211 34.3398 76.1445 34.6406 75.5898 34.8828C75.043 35.1172 74.4258 35.2344 73.7383 35.2344C72.8789 35.2344 72.125 35.0664 71.4766 34.7305C70.8359 34.3945 70.3359 33.9453 69.9766 33.3828C69.625 32.8125 69.4492 32.1758 69.4492 31.4727C69.4492 30.793 69.582 30.1953 69.8477 29.6797C70.1133 29.1562 70.4961 28.7227 70.9961 28.3789C71.4961 28.0273 72.0977 27.7617 72.8008 27.582C73.5039 27.4023 74.2891 27.3125 75.1562 27.3125H77.6758ZM90.2617 31.6367C90.2617 31.3242 90.1914 31.0352 90.0508 30.7695C89.918 30.4961 89.6406 30.25 89.2188 30.0312C88.8047 29.8047 88.1797 29.6094 87.3438 29.4453C86.6406 29.2969 86.0039 29.1211 85.4336 28.918C84.8711 28.7148 84.3906 28.4688 83.9922 28.1797C83.6016 27.8906 83.3008 27.5508 83.0898 27.1602C82.8789 26.7695 82.7734 26.3125 82.7734 25.7891C82.7734 25.2891 82.8828 24.8164 83.1016 24.3711C83.3281 23.9258 83.6445 23.5312 84.0508 23.1875C84.4648 22.8438 84.9609 22.5742 85.5391 22.3789C86.1172 22.1836 86.7617 22.0859 87.4727 22.0859C88.4883 22.0859 89.3555 22.2656 90.0742 22.625C90.793 22.9844 91.3438 23.4648 91.7266 24.0664C92.1094 24.6602 92.3008 25.3203 92.3008 26.0469H90.1328C90.1328 25.6953 90.0273 25.3555 89.8164 25.0273C89.6133 24.6914 89.3125 24.4141 88.9141 24.1953C88.5234 23.9766 88.043 23.8672 87.4727 23.8672C86.8711 23.8672 86.3828 23.9609 86.0078 24.1484C85.6406 24.3281 85.3711 24.5586 85.1992 24.8398C85.0352 25.1211 84.9531 25.418 84.9531 25.7305C84.9531 25.9648 84.9922 26.1758 85.0703 26.3633C85.1562 26.543 85.3047 26.7109 85.5156 26.8672C85.7266 27.0156 86.0234 27.1562 86.4062 27.2891C86.7891 27.4219 87.2773 27.5547 87.8711 27.6875C88.9102 27.9219 89.7656 28.2031 90.4375 28.5312C91.1094 28.8594 91.6094 29.2617 91.9375 29.7383C92.2656 30.2148 92.4297 30.793 92.4297 31.4727C92.4297 32.0273 92.3125 32.5352 92.0781 32.9961C91.8516 33.457 91.5195 33.8555 91.082 34.1914C90.6523 34.5195 90.1367 34.7773 89.5352 34.9648C88.9414 35.1445 88.2734 35.2344 87.5312 35.2344C86.4141 35.2344 85.4688 35.0352 84.6953 34.6367C83.9219 34.2383 83.3359 33.7227 82.9375 33.0898C82.5391 32.457 82.3398 31.7891 82.3398 31.0859H84.5195C84.5508 31.6797 84.7227 32.1523 85.0352 32.5039C85.3477 32.8477 85.7305 33.0938 86.1836 33.2422C86.6367 33.3828 87.0859 33.4531 87.5312 33.4531C88.125 33.4531 88.6211 33.375 89.0195 33.2188C89.4258 33.0625 89.7344 32.8477 89.9453 32.5742C90.1562 32.3008 90.2617 31.9883 90.2617 31.6367ZM100.586 22.3203V23.9844H93.7305V22.3203H100.586ZM96.0508 19.2383H98.2188V31.8594C98.2188 32.2891 98.2852 32.6133 98.418 32.832C98.5508 33.0508 98.7227 33.1953 98.9336 33.2656C99.1445 33.3359 99.3711 33.3711 99.6133 33.3711C99.793 33.3711 99.9805 33.3555 100.176 33.3242C100.379 33.2852 100.531 33.2539 100.633 33.2305L100.645 35C100.473 35.0547 100.246 35.1055 99.9648 35.1523C99.6914 35.207 99.3594 35.2344 98.9688 35.2344C98.4375 35.2344 97.9492 35.1289 97.5039 34.918C97.0586 34.707 96.7031 34.3555 96.4375 33.8633C96.1797 33.3633 96.0508 32.6914 96.0508 31.8477V19.2383ZM105.297 24.3125V35H103.129V22.3203H105.238L105.297 24.3125ZM109.258 22.25L109.246 24.2656C109.066 24.2266 108.895 24.2031 108.73 24.1953C108.574 24.1797 108.395 24.1719 108.191 24.1719C107.691 24.1719 107.25 24.25 106.867 24.4062C106.484 24.5625 106.16 24.7812 105.895 25.0625C105.629 25.3438 105.418 25.6797 105.262 26.0703C105.113 26.4531 105.016 26.875 104.969 27.3359L104.359 27.6875C104.359 26.9219 104.434 26.2031 104.582 25.5312C104.738 24.8594 104.977 24.2656 105.297 23.75C105.617 23.2266 106.023 22.8203 106.516 22.5312C107.016 22.2344 107.609 22.0859 108.297 22.0859C108.453 22.0859 108.633 22.1055 108.836 22.1445C109.039 22.1758 109.18 22.2109 109.258 22.25ZM110.453 28.8008V28.5312C110.453 27.6172 110.586 26.7695 110.852 25.9883C111.117 25.1992 111.5 24.5156 112 23.9375C112.5 23.3516 113.105 22.8984 113.816 22.5781C114.527 22.25 115.324 22.0859 116.207 22.0859C117.098 22.0859 117.898 22.25 118.609 22.5781C119.328 22.8984 119.938 23.3516 120.438 23.9375C120.945 24.5156 121.332 25.1992 121.598 25.9883C121.863 26.7695 121.996 27.6172 121.996 28.5312V28.8008C121.996 29.7148 121.863 30.5625 121.598 31.3438C121.332 32.125 120.945 32.8086 120.438 33.3945C119.938 33.9727 119.332 34.4258 118.621 34.7539C117.918 35.0742 117.121 35.2344 116.23 35.2344C115.34 35.2344 114.539 35.0742 113.828 34.7539C113.117 34.4258 112.508 33.9727 112 33.3945C111.5 32.8086 111.117 32.125 110.852 31.3438C110.586 30.5625 110.453 29.7148 110.453 28.8008ZM112.621 28.5312V28.8008C112.621 29.4336 112.695 30.0312 112.844 30.5938C112.992 31.1484 113.215 31.6406 113.512 32.0703C113.816 32.5 114.195 32.8398 114.648 33.0898C115.102 33.332 115.629 33.4531 116.23 33.4531C116.824 33.4531 117.344 33.332 117.789 33.0898C118.242 32.8398 118.617 32.5 118.914 32.0703C119.211 31.6406 119.434 31.1484 119.582 30.5938C119.738 30.0312 119.816 29.4336 119.816 28.8008V28.5312C119.816 27.9062 119.738 27.3164 119.582 26.7617C119.434 26.1992 119.207 25.7031 118.902 25.2734C118.605 24.8359 118.23 24.4922 117.777 24.2422C117.332 23.9922 116.809 23.8672 116.207 23.8672C115.613 23.8672 115.09 23.9922 114.637 24.2422C114.191 24.4922 113.816 24.8359 113.512 25.2734C113.215 25.7031 112.992 26.1992 112.844 26.7617C112.695 27.3164 112.621 27.9062 112.621 28.5312Z" fill="black"/>
<rect x="0.5" y="0.5" width="148" height="52" rx="9.5" stroke="black"/>
</svg>
