<svg width="120" height="120" viewBox="0 0 120 120" fill="none" xmlns="http://www.w3.org/2000/svg">
<path d="M60 0C48.1331 0 36.5328 3.51894 26.6658 10.1118C16.7989 16.7047 9.10851 26.0754 4.56725 37.039C0.025997 48.0025 -1.1622 60.0665 1.15291 71.7054C3.46802 83.3443 9.18247 94.0352 17.5736 102.426C25.9648 110.818 36.6557 116.532 48.2946 118.847C59.9335 121.162 71.9975 119.974 82.961 115.433C93.9246 110.891 103.295 103.201 109.888 93.3342C116.481 83.4672 120 71.8669 120 60C120 52.1207 118.448 44.3185 115.433 37.039C112.418 29.7594 107.998 23.1451 102.426 17.5736C96.8549 12.0021 90.2406 7.58251 82.961 4.56723C75.6815 1.55195 67.8793 0 60 0ZM60 108C50.5065 108 41.2262 105.185 33.3326 99.9105C25.4391 94.6362 19.2868 87.1396 15.6538 78.3688C12.0208 69.5979 11.0702 59.9467 12.9223 50.6357C14.7744 41.3246 19.346 32.7718 26.0589 26.0589C32.7718 19.3459 41.3246 14.7744 50.6357 12.9223C59.9468 11.0702 69.598 12.0208 78.3688 15.6538C87.1397 19.2868 94.6362 25.4391 99.9105 33.3326C105.185 41.2262 108 50.5065 108 60C108 72.7304 102.943 84.9394 93.9411 93.9411C84.9394 102.943 72.7304 108 60 108Z" fill="black"/>
<path d="M76.207 38.34L53.527 68.34L43.747 55.68C42.7683 54.4228 41.3304 53.606 39.7495 53.409C38.1685 53.2121 36.5741 53.6513 35.317 54.63C34.0599 55.6086 33.243 57.0466 33.0461 58.6275C32.8492 60.2084 33.2883 61.8028 34.267 63.06L48.847 81.7199C49.412 82.435 50.1325 83.012 50.9538 83.407C51.7751 83.8021 52.6756 84.0049 53.587 83.9999C54.5033 83.9977 55.4069 83.7857 56.2286 83.3801C57.0502 82.9745 57.768 82.386 58.327 81.6599L85.747 45.66C86.7177 44.3869 87.1429 42.7804 86.9291 41.1939C86.7153 39.6073 85.88 38.1707 84.607 37.2C83.3339 36.2293 81.7274 35.804 80.1409 36.0178C78.5543 36.2316 77.1177 37.0669 76.147 38.34H76.207Z" fill="black"/>
</svg>
