<svg width="129" height="60" viewBox="0 0 129 60" fill="none" xmlns="http://www.w3.org/2000/svg">
<path d="M75.7 17.5C75.268 16.7515 74.6494 16.1278 73.9046 15.6897C73.1597 15.2515 72.314 15.0139 71.45 15H39.45L38 9.35C37.8535 8.8046 37.5267 8.32486 37.0727 7.98893C36.6187 7.653 36.0644 7.48067 35.5 7.5H30.5C29.837 7.5 29.2011 7.76339 28.7322 8.23223C28.2634 8.70108 28 9.33696 28 10C28 10.663 28.2634 11.2989 28.7322 11.7678C29.2011 12.2366 29.837 12.5 30.5 12.5H33.6L40.5 38.15C40.6465 38.6954 40.9733 39.1751 41.4273 39.5111C41.8813 39.847 42.4356 40.0193 43 40H65.5C65.9617 39.9986 66.4139 39.8694 66.8067 39.6267C67.1994 39.384 67.5172 39.0373 67.725 38.625L75.925 22.225C76.2804 21.48 76.4459 20.6587 76.4066 19.8342C76.3673 19.0097 76.1246 18.2078 75.7 17.5ZM63.95 35H44.9L40.825 20H71.45L63.95 35Z" fill="black"/>
<path d="M41.75 52.5C43.8211 52.5 45.5 50.8211 45.5 48.75C45.5 46.6789 43.8211 45 41.75 45C39.6789 45 38 46.6789 38 48.75C38 50.8211 39.6789 52.5 41.75 52.5Z" fill="black"/>
<path d="M66.75 52.5C68.8211 52.5 70.5 50.8211 70.5 48.75C70.5 46.6789 68.8211 45 66.75 45C64.6789 45 63 46.6789 63 48.75C63 50.8211 64.6789 52.5 66.75 52.5Z" fill="black"/>
<path d="M98 17.5C95.5277 17.5 93.111 18.2331 91.0554 19.6066C88.9998 20.9801 87.3976 22.9324 86.4515 25.2165C85.5054 27.5005 85.2579 30.0139 85.7402 32.4386C86.2225 34.8634 87.413 37.0907 89.1612 38.8388C90.9093 40.587 93.1366 41.7775 95.5614 42.2598C97.9861 42.7421 100.499 42.4946 102.784 41.5485C105.068 40.6024 107.02 39.0002 108.393 36.9446C109.767 34.889 110.5 32.4723 110.5 30C110.5 28.3585 110.177 26.733 109.549 25.2165C108.92 23.6999 108 22.3219 106.839 21.1612C105.678 20.0004 104.3 19.0797 102.784 18.4515C101.267 17.8233 99.6415 17.5 98 17.5ZM98 40C96.0222 40 94.0888 39.4135 92.4443 38.3147C90.7998 37.2159 89.5181 35.6541 88.7612 33.8268C88.0043 31.9996 87.8063 29.9889 88.1922 28.0491C88.578 26.1093 89.5304 24.3275 90.9289 22.9289C92.3275 21.5304 94.1093 20.578 96.0491 20.1921C97.9889 19.8063 99.9996 20.0043 101.827 20.7612C103.654 21.5181 105.216 22.7998 106.315 24.4443C107.414 26.0888 108 28.0222 108 30C108 32.6522 106.946 35.1957 105.071 37.0711C103.196 38.9464 100.652 40 98 40Z" fill="black"/>
<path d="M101.75 28.75H99.25V26.25C99.25 25.9185 99.1183 25.6005 98.8839 25.3661C98.6495 25.1317 98.3315 25 98 25C97.6685 25 97.3505 25.1317 97.1161 25.3661C96.8817 25.6005 96.75 25.9185 96.75 26.25V28.75H94.25C93.9185 28.75 93.6005 28.8817 93.3661 29.1161C93.1317 29.3505 93 29.6685 93 30C93 30.3315 93.1317 30.6495 93.3661 30.8839C93.6005 31.1183 93.9185 31.25 94.25 31.25H96.75V33.75C96.75 34.0815 96.8817 34.3995 97.1161 34.6339C97.3505 34.8683 97.6685 35 98 35C98.3315 35 98.6495 34.8683 98.8839 34.6339C99.1183 34.3995 99.25 34.0815 99.25 33.75V31.25H101.75C102.082 31.25 102.399 31.1183 102.634 30.8839C102.868 30.6495 103 30.3315 103 30C103 29.6685 102.868 29.3505 102.634 29.1161C102.399 28.8817 102.082 28.75 101.75 28.75Z" fill="black"/>
<rect x="0.5" y="0.5" width="128" height="59" rx="9.5" stroke="black"/>
</svg>
