<svg width="60" height="60" viewBox="0 0 60 60" fill="none" xmlns="http://www.w3.org/2000/svg">
<path d="M45 52.5H30C28.0109 52.5 26.1032 51.7098 24.6967 50.3033C23.2902 48.8968 22.5 46.9891 22.5 45V30C22.5 28.0109 23.2902 26.1032 24.6967 24.6967C26.1032 23.2902 28.0109 22.5 30 22.5H45C46.9891 22.5 48.8968 23.2902 50.3033 24.6967C51.7098 26.1032 52.5 28.0109 52.5 30V45C52.5 46.9891 51.7098 48.8968 50.3033 50.3033C48.8968 51.7098 46.9891 52.5 45 52.5ZM30 27.5C29.337 27.5 28.7011 27.7634 28.2322 28.2322C27.7634 28.7011 27.5 29.337 27.5 30V45C27.5 45.663 27.7634 46.2989 28.2322 46.7678C28.7011 47.2366 29.337 47.5 30 47.5H45C45.663 47.5 46.2989 47.2366 46.7678 46.7678C47.2366 46.2989 47.5 45.663 47.5 45V30C47.5 29.337 47.2366 28.7011 46.7678 28.2322C46.2989 27.7634 45.663 27.5 45 27.5H30Z" fill="black"/>
<path d="M24.325 35C24.325 36.3807 23.2057 37.5 21.825 37.5H14.175C12.4067 37.4934 10.7127 36.788 9.46234 35.5377C8.21196 34.2873 7.50659 32.5933 7.5 30.825V14.175C7.50659 12.4067 8.21196 10.7127 9.46234 9.46234C10.7127 8.21196 12.4067 7.50659 14.175 7.5H30.825C32.5933 7.50659 34.2873 8.21196 35.5377 9.46234C36.788 10.7127 37.4934 12.4067 37.5 14.175V21C37.5 22.3807 36.3807 23.5 35 23.5C33.6193 23.5 32.5 22.3807 32.5 21V14.175C32.5 13.7308 32.3235 13.3047 32.0094 12.9906C31.6953 12.6765 31.2692 12.5 30.825 12.5H14.175C13.7308 12.5 13.3047 12.6765 12.9906 12.9906C12.6765 13.3047 12.5 13.7308 12.5 14.175V30.825C12.5 31.2692 12.6765 31.6953 12.9906 32.0094C13.3047 32.3235 13.7308 32.5 14.175 32.5H21.825C23.2057 32.5 24.325 33.6193 24.325 35Z" fill="black"/>
</svg>
