<svg width="70" height="70" viewBox="0 0 70 70" fill="none" xmlns="http://www.w3.org/2000/svg">
<rect width="70" height="70" rx="10" fill="#C4C4C4"/>
<path d="M43.3664 16.4663C45.3216 14.5112 48.4969 14.5112 50.4521 16.4663L53.5336 19.5501C55.4888 21.5045 55.4888 24.6767 53.5336 26.6319L49.7483 30.4172L39.5811 20.2516L43.3664 16.4663ZM47.9807 32.1848L29.7424 50.4153C28.929 51.2287 27.9201 51.8309 26.8174 52.1515L17.4065 54.9201C16.748 55.1156 16.0355 54.9358 15.5498 54.3805C15.0641 53.966 14.8825 53.2543 15.0763 52.5895L17.8444 43.1809C18.1698 42.0782 18.7665 41.0693 19.5807 40.2559L37.8136 22.0207L47.9807 32.1848Z" fill="black"/>
</svg>
