<svg width="149" height="53" viewBox="0 0 149 53" fill="none" xmlns="http://www.w3.org/2000/svg">
<rect x="0.5" y="0.5" width="148" height="52" rx="9.5" fill="white" fill-opacity="0.4"/>
<path d="M57.2266 33.1602V35H48.6953V33.1602H57.2266ZM49.1406 17.9375V35H46.8789V17.9375H49.1406ZM58.9141 28.8008V28.5312C58.9141 27.6172 59.0469 26.7695 59.3125 25.9883C59.5781 25.1992 59.9609 24.5156 60.4609 23.9375C60.9609 23.3516 61.5664 22.8984 62.2773 22.5781C62.9883 22.25 63.7852 22.0859 64.668 22.0859C65.5586 22.0859 66.3594 22.25 67.0703 22.5781C67.7891 22.8984 68.3984 23.3516 68.8984 23.9375C69.4062 24.5156 69.793 25.1992 70.0586 25.9883C70.3242 26.7695 70.457 27.6172 70.457 28.5312V28.8008C70.457 29.7148 70.3242 30.5625 70.0586 31.3438C69.793 32.125 69.4062 32.8086 68.8984 33.3945C68.3984 33.9727 67.793 34.4258 67.082 34.7539C66.3789 35.0742 65.582 35.2344 64.6914 35.2344C63.8008 35.2344 63 35.0742 62.2891 34.7539C61.5781 34.4258 60.9688 33.9727 60.4609 33.3945C59.9609 32.8086 59.5781 32.125 59.3125 31.3438C59.0469 30.5625 58.9141 29.7148 58.9141 28.8008ZM61.082 28.5312V28.8008C61.082 29.4336 61.1562 30.0312 61.3047 30.5938C61.4531 31.1484 61.6758 31.6406 61.9727 32.0703C62.2773 32.5 62.6562 32.8398 63.1094 33.0898C63.5625 33.332 64.0898 33.4531 64.6914 33.4531C65.2852 33.4531 65.8047 33.332 66.25 33.0898C66.7031 32.8398 67.0781 32.5 67.375 32.0703C67.6719 31.6406 67.8945 31.1484 68.043 30.5938C68.1992 30.0312 68.2773 29.4336 68.2773 28.8008V28.5312C68.2773 27.9062 68.1992 27.3164 68.043 26.7617C67.8945 26.1992 67.668 25.7031 67.3633 25.2734C67.0664 24.8359 66.6914 24.4922 66.2383 24.2422C65.793 23.9922 65.2695 23.8672 64.668 23.8672C64.0742 23.8672 63.5508 23.9922 63.0977 24.2422C62.6523 24.4922 62.2773 24.8359 61.9727 25.2734C61.6758 25.7031 61.4531 26.1992 61.3047 26.7617C61.1562 27.3164 61.082 27.9062 61.082 28.5312ZM81.3906 22.3203H83.3594V34.7305C83.3594 35.8477 83.1328 36.8008 82.6797 37.5898C82.2266 38.3789 81.5938 38.9766 80.7812 39.3828C79.9766 39.7969 79.0469 40.0039 77.9922 40.0039C77.5547 40.0039 77.0391 39.9336 76.4453 39.793C75.8594 39.6602 75.2812 39.4297 74.7109 39.1016C74.1484 38.7812 73.6758 38.3477 73.293 37.8008L74.4297 36.5117C74.9609 37.1523 75.5156 37.5977 76.0938 37.8477C76.6797 38.0977 77.2578 38.2227 77.8281 38.2227C78.5156 38.2227 79.1094 38.0938 79.6094 37.8359C80.1094 37.5781 80.4961 37.1953 80.7695 36.6875C81.0508 36.1875 81.1914 35.5703 81.1914 34.8359V25.1094L81.3906 22.3203ZM72.6602 28.8008V28.5547C72.6602 27.5859 72.7734 26.707 73 25.918C73.2344 25.1211 73.5664 24.4375 73.9961 23.8672C74.4336 23.2969 74.9609 22.8594 75.5781 22.5547C76.1953 22.2422 76.8906 22.0859 77.6641 22.0859C78.4609 22.0859 79.1562 22.2266 79.75 22.5078C80.3516 22.7812 80.8594 23.1836 81.2734 23.7148C81.6953 24.2383 82.0273 24.8711 82.2695 25.6133C82.5117 26.3555 82.6797 27.1953 82.7734 28.1328V29.2109C82.6875 30.1406 82.5195 30.9766 82.2695 31.7188C82.0273 32.4609 81.6953 33.0938 81.2734 33.6172C80.8594 34.1406 80.3516 34.543 79.75 34.8242C79.1484 35.0977 78.4453 35.2344 77.6406 35.2344C76.8828 35.2344 76.1953 35.0742 75.5781 34.7539C74.9688 34.4336 74.4453 33.9844 74.0078 33.4062C73.5703 32.8281 73.2344 32.1484 73 31.3672C72.7734 30.5781 72.6602 29.7227 72.6602 28.8008ZM74.8281 28.5547V28.8008C74.8281 29.4336 74.8906 30.0273 75.0156 30.582C75.1484 31.1367 75.3477 31.625 75.6133 32.0469C75.8867 32.4688 76.2344 32.8008 76.6562 33.043C77.0781 33.2773 77.582 33.3945 78.168 33.3945C78.8867 33.3945 79.4805 33.2422 79.9492 32.9375C80.418 32.6328 80.7891 32.2305 81.0625 31.7305C81.3438 31.2305 81.5625 30.6875 81.7188 30.1016V27.2773C81.6328 26.8477 81.5 26.4336 81.3203 26.0352C81.1484 25.6289 80.9219 25.2695 80.6406 24.957C80.3672 24.6367 80.0273 24.3828 79.6211 24.1953C79.2148 24.0078 78.7383 23.9141 78.1914 23.9141C77.5977 23.9141 77.0859 24.0391 76.6562 24.2891C76.2344 24.5312 75.8867 24.8672 75.6133 25.2969C75.3477 25.7188 75.1484 26.2109 75.0156 26.7734C74.8906 27.3281 74.8281 27.9219 74.8281 28.5547ZM89.0078 22.3203V35H86.8281V22.3203H89.0078ZM86.6641 18.957C86.6641 18.6055 86.7695 18.3086 86.9805 18.0664C87.1992 17.8242 87.5195 17.7031 87.9414 17.7031C88.3555 17.7031 88.6719 17.8242 88.8906 18.0664C89.1172 18.3086 89.2305 18.6055 89.2305 18.957C89.2305 19.293 89.1172 19.582 88.8906 19.8242C88.6719 20.0586 88.3555 20.1758 87.9414 20.1758C87.5195 20.1758 87.1992 20.0586 86.9805 19.8242C86.7695 19.582 86.6641 19.293 86.6641 18.957ZM94.6562 25.0273V35H92.4883V22.3203H94.5391L94.6562 25.0273ZM94.1406 28.1797L93.2383 28.1445C93.2461 27.2773 93.375 26.4766 93.625 25.7422C93.875 25 94.2266 24.3555 94.6797 23.8086C95.1328 23.2617 95.6719 22.8398 96.2969 22.543C96.9297 22.2383 97.6289 22.0859 98.3945 22.0859C99.0195 22.0859 99.582 22.1719 100.082 22.3438C100.582 22.5078 101.008 22.7734 101.359 23.1406C101.719 23.5078 101.992 23.9844 102.18 24.5703C102.367 25.1484 102.461 25.8555 102.461 26.6914V35H100.281V26.668C100.281 26.0039 100.184 25.4727 99.9883 25.0742C99.793 24.668 99.5078 24.375 99.1328 24.1953C98.7578 24.0078 98.2969 23.9141 97.75 23.9141C97.2109 23.9141 96.7188 24.0273 96.2734 24.2539C95.8359 24.4805 95.457 24.793 95.1367 25.1914C94.8242 25.5898 94.5781 26.0469 94.3984 26.5625C94.2266 27.0703 94.1406 27.6094 94.1406 28.1797Z" fill="black"/>
<rect x="0.5" y="0.5" width="148" height="52" rx="9.5" stroke="black"/>
</svg>
