<svg width="149" height="53" viewBox="0 0 149 53" fill="none" xmlns="http://www.w3.org/2000/svg">
<rect x="0.5" y="0.5" width="148" height="52" rx="9.5" fill="white" fill-opacity="0.4"/>
<path d="M55.5156 33.1602V35H46.4805V33.1602H55.5156ZM46.9375 17.9375V35H44.6758V17.9375H46.9375ZM54.3203 25.2734V27.1133H46.4805V25.2734H54.3203ZM55.3984 17.9375V19.7891H46.4805V17.9375H55.3984ZM60.1562 25.0273V35H57.9883V22.3203H60.0391L60.1562 25.0273ZM59.6406 28.1797L58.7383 28.1445C58.7461 27.2773 58.875 26.4766 59.125 25.7422C59.375 25 59.7266 24.3555 60.1797 23.8086C60.6328 23.2617 61.1719 22.8398 61.7969 22.543C62.4297 22.2383 63.1289 22.0859 63.8945 22.0859C64.5195 22.0859 65.082 22.1719 65.582 22.3438C66.082 22.5078 66.5078 22.7734 66.8594 23.1406C67.2188 23.5078 67.4922 23.9844 67.6797 24.5703C67.8672 25.1484 67.9609 25.8555 67.9609 26.6914V35H65.7812V26.668C65.7812 26.0039 65.6836 25.4727 65.4883 25.0742C65.293 24.668 65.0078 24.375 64.6328 24.1953C64.2578 24.0078 63.7969 23.9141 63.25 23.9141C62.7109 23.9141 62.2188 24.0273 61.7734 24.2539C61.3359 24.4805 60.957 24.793 60.6367 25.1914C60.3242 25.5898 60.0781 26.0469 59.8984 26.5625C59.7266 27.0703 59.6406 27.6094 59.6406 28.1797ZM76.5625 22.3203V23.9844H69.707V22.3203H76.5625ZM72.0273 19.2383H74.1953V31.8594C74.1953 32.2891 74.2617 32.6133 74.3945 32.832C74.5273 33.0508 74.6992 33.1953 74.9102 33.2656C75.1211 33.3359 75.3477 33.3711 75.5898 33.3711C75.7695 33.3711 75.957 33.3555 76.1523 33.3242C76.3555 33.2852 76.5078 33.2539 76.6094 33.2305L76.6211 35C76.4492 35.0547 76.2227 35.1055 75.9414 35.1523C75.668 35.207 75.3359 35.2344 74.9453 35.2344C74.4141 35.2344 73.9258 35.1289 73.4805 34.918C73.0352 34.707 72.6797 34.3555 72.4141 33.8633C72.1562 33.3633 72.0273 32.6914 72.0273 31.8477V19.2383ZM81.2734 24.3125V35H79.1055V22.3203H81.2148L81.2734 24.3125ZM85.2344 22.25L85.2227 24.2656C85.043 24.2266 84.8711 24.2031 84.707 24.1953C84.5508 24.1797 84.3711 24.1719 84.168 24.1719C83.668 24.1719 83.2266 24.25 82.8438 24.4062C82.4609 24.5625 82.1367 24.7812 81.8711 25.0625C81.6055 25.3438 81.3945 25.6797 81.2383 26.0703C81.0898 26.4531 80.9922 26.875 80.9453 27.3359L80.3359 27.6875C80.3359 26.9219 80.4102 26.2031 80.5586 25.5312C80.7148 24.8594 80.9531 24.2656 81.2734 23.75C81.5938 23.2266 82 22.8203 82.4922 22.5312C82.9922 22.2344 83.5859 22.0859 84.2734 22.0859C84.4297 22.0859 84.6094 22.1055 84.8125 22.1445C85.0156 22.1758 85.1562 22.2109 85.2344 22.25ZM94.2461 32.832V26.3047C94.2461 25.8047 94.1445 25.3711 93.9414 25.0039C93.7461 24.6289 93.4492 24.3398 93.0508 24.1367C92.6523 23.9336 92.1602 23.832 91.5742 23.832C91.0273 23.832 90.5469 23.9258 90.1328 24.1133C89.7266 24.3008 89.4062 24.5469 89.1719 24.8516C88.9453 25.1562 88.832 25.4844 88.832 25.8359H86.6641C86.6641 25.3828 86.7812 24.9336 87.0156 24.4883C87.25 24.043 87.5859 23.6406 88.0234 23.2812C88.4688 22.9141 89 22.625 89.6172 22.4141C90.2422 22.1953 90.9375 22.0859 91.7031 22.0859C92.625 22.0859 93.4375 22.2422 94.1406 22.5547C94.8516 22.8672 95.4062 23.3398 95.8047 23.9727C96.2109 24.5977 96.4141 25.3828 96.4141 26.3281V32.2344C96.4141 32.6562 96.4492 33.1055 96.5195 33.582C96.5977 34.0586 96.7109 34.4688 96.8594 34.8125V35H94.5977C94.4883 34.75 94.4023 34.418 94.3398 34.0039C94.2773 33.582 94.2461 33.1914 94.2461 32.832ZM94.6211 27.3125L94.6445 28.8359H92.4531C91.8359 28.8359 91.2852 28.8867 90.8008 28.9883C90.3164 29.082 89.9102 29.2266 89.582 29.4219C89.2539 29.6172 89.0039 29.8633 88.832 30.1602C88.6602 30.4492 88.5742 30.7891 88.5742 31.1797C88.5742 31.5781 88.6641 31.9414 88.8438 32.2695C89.0234 32.5977 89.293 32.8594 89.6523 33.0547C90.0195 33.2422 90.4688 33.3359 91 33.3359C91.6641 33.3359 92.25 33.1953 92.7578 32.9141C93.2656 32.6328 93.668 32.2891 93.9648 31.8828C94.2695 31.4766 94.4336 31.082 94.457 30.6992L95.3828 31.7422C95.3281 32.0703 95.1797 32.4336 94.9375 32.832C94.6953 33.2305 94.3711 33.6133 93.9648 33.9805C93.5664 34.3398 93.0898 34.6406 92.5352 34.8828C91.9883 35.1172 91.3711 35.2344 90.6836 35.2344C89.8242 35.2344 89.0703 35.0664 88.4219 34.7305C87.7812 34.3945 87.2812 33.9453 86.9219 33.3828C86.5703 32.8125 86.3945 32.1758 86.3945 31.4727C86.3945 30.793 86.5273 30.1953 86.793 29.6797C87.0586 29.1562 87.4414 28.7227 87.9414 28.3789C88.4414 28.0273 89.043 27.7617 89.7461 27.582C90.4492 27.4023 91.2344 27.3125 92.1016 27.3125H94.6211ZM101.992 24.3125V35H99.8242V22.3203H101.934L101.992 24.3125ZM105.953 22.25L105.941 24.2656C105.762 24.2266 105.59 24.2031 105.426 24.1953C105.27 24.1797 105.09 24.1719 104.887 24.1719C104.387 24.1719 103.945 24.25 103.562 24.4062C103.18 24.5625 102.855 24.7812 102.59 25.0625C102.324 25.3438 102.113 25.6797 101.957 26.0703C101.809 26.4531 101.711 26.875 101.664 27.3359L101.055 27.6875C101.055 26.9219 101.129 26.2031 101.277 25.5312C101.434 24.8594 101.672 24.2656 101.992 23.75C102.312 23.2266 102.719 22.8203 103.211 22.5312C103.711 22.2344 104.305 22.0859 104.992 22.0859C105.148 22.0859 105.328 22.1055 105.531 22.1445C105.734 22.1758 105.875 22.2109 105.953 22.25Z" fill="black"/>
<rect x="0.5" y="0.5" width="148" height="52" rx="9.5" stroke="black"/>
</svg>
