<svg width="50" height="53" viewBox="0 0 50 53" fill="none" xmlns="http://www.w3.org/2000/svg">
<path d="M43.1458 42.1683L36.0625 34.7577C38.3479 31.7026 39.5879 27.93 39.5833 24.0462C39.5833 20.5874 38.6059 17.2062 36.7745 14.3303C34.9431 11.4544 32.3402 9.21288 29.2947 7.88924C26.2493 6.56561 22.8982 6.21928 19.6652 6.89407C16.4322 7.56885 13.4624 9.23444 11.1316 11.6802C8.80069 14.126 7.21334 17.2421 6.57025 20.6344C5.92717 24.0268 6.25722 27.5431 7.51868 30.7386C8.78014 33.9342 10.9164 36.6654 13.6572 38.5871C16.398 40.5087 19.6203 41.5344 22.9167 41.5344C26.618 41.5392 30.2135 40.238 33.125 37.84L40.1875 45.2724C40.3812 45.4773 40.6116 45.64 40.8655 45.7509C41.1193 45.8619 41.3916 45.9191 41.6667 45.9191C41.9417 45.9191 42.214 45.8619 42.4679 45.7509C42.7217 45.64 42.9522 45.4773 43.1458 45.2724C43.3411 45.0692 43.4961 44.8274 43.6019 44.5611C43.7076 44.2947 43.7621 44.009 43.7621 43.7204C43.7621 43.4318 43.7076 43.1461 43.6019 42.8797C43.4961 42.6133 43.3411 42.3715 43.1458 42.1683ZM10.4167 24.0462C10.4167 21.4521 11.1498 18.9162 12.5233 16.7593C13.8968 14.6023 15.8491 12.9212 18.1331 11.9285C20.4172 10.9358 22.9305 10.676 25.3553 11.1821C27.7801 11.6882 30.0074 12.9374 31.7555 14.7717C33.5037 16.606 34.6942 18.9431 35.1765 21.4874C35.6588 24.0316 35.4113 26.6689 34.4652 29.0655C33.5191 31.4622 31.9169 33.5106 29.8613 34.9518C27.8057 36.3931 25.3889 37.1623 22.9167 37.1623C19.6015 37.1623 16.422 35.7804 14.0778 33.3207C11.7336 30.8609 10.4167 27.5248 10.4167 24.0462Z" fill="black"/>
</svg>
