<svg width="30" height="27" viewBox="0 0 30 27" fill="none" xmlns="http://www.w3.org/2000/svg">
<path d="M1.875 15H24.1125L17.3062 23.175C17.1487 23.3646 17.03 23.5834 16.9569 23.8188C16.8839 24.0543 16.858 24.3019 16.8806 24.5474C16.9263 25.0432 17.1671 25.5005 17.55 25.8188C17.9329 26.137 18.4266 26.2901 18.9224 26.2444C19.4182 26.1987 19.8755 25.9579 20.1938 25.575L29.5688 14.325C29.6318 14.2355 29.6882 14.1415 29.7375 14.0438C29.7375 13.95 29.8313 13.8938 29.8688 13.8C29.9537 13.585 29.9982 13.3562 30 13.125C29.9982 12.8938 29.9537 12.665 29.8688 12.45C29.8688 12.3563 29.775 12.3 29.7375 12.2063C29.6882 12.1085 29.6318 12.0145 29.5688 11.925L20.1938 0.675004C20.0175 0.463349 19.7967 0.293136 19.5472 0.176471C19.2976 0.059807 19.0255 -0.00044376 18.75 3.58192e-06C18.3119 -0.00085238 17.8873 0.151726 17.55 0.431254C17.3601 0.588658 17.2032 0.781972 17.0882 1.00012C16.9731 1.21827 16.9023 1.45698 16.8796 1.70256C16.857 1.94814 16.883 2.19577 16.9562 2.43128C17.0294 2.66679 17.1484 2.88554 17.3062 3.075L24.1125 11.25H1.875C1.37772 11.25 0.900806 11.4475 0.549175 11.7992C0.197544 12.1508 0 12.6277 0 13.125C0 13.6223 0.197544 14.0992 0.549175 14.4508C0.900806 14.8025 1.37772 15 1.875 15Z" fill="white"/>
</svg>
